{"title":"The Water Horse-Legend of the Deep 2007 720p BRRip x264 MP4 AAC-","uid":11920690,"size":2527820922,"categoryP":"video","categoryS":"hd___movies","magnet":"?xt=urn:btih:6adbfbc92885fbabf625e6bc7f3553ea978e1a3c&amp;dn=The+Water+Horse-Legend+of+the+Deep+2007+720p+BRRip+x264+MP4+AAC-&amp;tr=udp%3A%2F%2Ftracker.openbittorrent.com%3A80&amp;tr=udp%3A%2F%2Fopen.demonii.com%3A1337&amp;tr=udp%3A%2F%2Ftracker.coppersurfer.tk%3A6969&amp;tr=udp%3A%2F%2Fexodus.desync.com%3A6969","seeders":0,"leechers":1,"uploader":"Caveman44","files":39,"time":1431624973,"description":" &lt;a href=&quot;\nhttp://www.imdb.com/title/tt0760329&quot; rel=&quot;nofollow&quot; target=&quot;_NEW&quot;&gt;\nhttp://www.imdb.com/title/tt0760329&lt;/a&gt;\n\nSource: The.Water.Horse.Legend.of.the.Deep.CC.2007.BluRay.720p.x264.DD51.DualAudio-MySiLU Thanks!                             \n\nSubs: Arabic, Croatian, Danish, Dutch, English, Farsi Persian, Finnish, Hebrew, Hungarian, Indonesian, Serbian, Slovenian, Spanish, Swedish, Vietnamese.\n\nSample and Screens included.\n\nGeneral\nComplete name                            : The Water Horse-Legend of the Deep 2007 720p BRRip x264 MP4 AAC-CC.mp4\nFormat                                   : MPEG-4\nFormat profile                           : Base Media\nCodec ID                                 : isom\nFile size                                : 2.33 GiB\nDuration                                 : 1h 51mn\nOverall bit rate mode                    : Variable\nOverall bit rate                         : 2 978 Kbps\nEncoded date                             : UTC 2015-04-27 15:43:30\nTagged date                              : UTC 2015-04-27 15:43:30\nWriting application                      : Yamb 2.1.0.0 \n\nVideo\nID                                       : 1\nFormat                                   : AVC\nFormat/Info                              : Advanced Video Codec\nFormat profile                           : &lt;a class=&quot;__cf_email__&quot; href=&quot;/cdn-cgi/l/email-protection&quot; data-cfemail=&quot;c38baaa4ab838ff7edf2&quot;&gt;[email&amp;#160;protected]&lt;/a&gt;&lt;script cf-hash='f9e31' type=&quot;text/javascript&quot;&gt;\n/* &lt;![CDATA[ */!function(){try{var t=&quot;currentScript&quot;in document?document.currentScript:function(){for(var t=document.getElementsByTagName(&quot;script&quot;),e=t.length;e--;)if(t[e].getAttribute(&quot;cf-hash&quot;))return t[e]}();if(t&amp;&amp;t.previousSibling){var e,r,n,i,c=t.previousSibling,a=c.getAttribute(&quot;data-cfemail&quot;);if(a){for(e=&quot;&quot;,r=parseInt(a.substr(0,2),16),n=2;a.length-n;n+=2)i=parseInt(a.substr(n,2),16)^r,e+=String.fromCharCode(i);e=document.createTextNode(e),c.parentNode.replaceChild(e,c)}}}catch(u){}}();/* ]]&gt; */&lt;/script&gt;\nFormat settings, CABAC                   : Yes\nFormat settings, ReFrames                : 5 frames\nCodec ID                                 : avc1\nCodec ID/Info                            : Advanced Video Coding\nDuration                                 : 1h 51mn\nBit rate                                 : 2 700 Kbps\nMaximum bit rate                         : 12.5 Mbps\nWidth                                    : 1 280 pixels\nHeight                                   : 534 pixels\nDisplay aspect ratio                     : 2.40:1\nFrame rate mode                          : Variable\nFrame rate                               : 23.976 fps\nMinimum frame rate                       : 15.873 fps\nMaximum frame rate                       : 24.390 fps\nColor space                              : YUV\nChroma subsampling                       : 4:2:0\nBit depth                                : 8 bits\nScan type                                : Progressive\nBits/(Pixel*Frame)                       : 0.165\nStream size                              : 2.02 GiB (87%)\nWriting library                          : x264 core 112\nEncoding settings                        : cabac=1 / ref=5 / deblock=1:0:0 / analyse=0x3:0x113 / me=hex / subme=7 / psy=1 / psy_rd=1.00:0.00 / mixed_ref=1 / me_range=16 / chroma_me=1 / trellis=1 / 8x8dct=1 / cqm=0 / deadzone=21,11 / fast_pskip=1 / chroma_qp_offset=-2 / threads=3 / sliced_threads=0 / nr=0 / decimate=1 / interlaced=0 / constrained_intra=0 / bframes=5 / b_pyramid=2 / b_adapt=2 / b_bias=0 / direct=1 / weightb=1 / open_gop=0 / weightp=2 / keyint=240 / keyint_min=24 / scenecut=40 / intra_refresh=0 / rc_lookahead=50 / rc=abr / mbtree=1 / bitrate=2700 / ratetol=1.0 / qcomp=0.60 / qpmin=3 / qpmax=51 / qpstep=4 / ip_ratio=1.40 / aq=1:1.00\nEncoded date                             : UTC 2015-04-27 19:39:40\nTagged date                              : UTC 2015-04-27 15:47:33\nColor primaries                          : BT.709\nTransfer characteristics                 : BT.709\nMatrix coefficients                      : BT.709\n\nAudio\nID                                       : 2\nFormat                                   : AAC\nFormat/Info                              : Advanced Audio Codec\nFormat profile                           : LC\nCodec ID                                 : 40\nDuration                                 : 1h 51mn\nBit rate mode                            : Variable\nBit rate                                 : 384 Kbps\nMaximum bit rate                         : 593 Kbps\nChannel(s)                               : 6 channels\nChannel positions                        : Front: L C R, Side: L R, LFE\nSampling rate                            : 48.0 KHz\nCompression mode                         : Lossy\nDelay relative to video                  : 83ms\nStream size                              : 305 MiB (13%)\nLanguage                                 : English\nEncoded date                             : UTC 2015-04-27 15:46:35\nTagged date                              : UTC 2015-04-27 15:47:33\n\nEnjoy...\n\nRequested by FredericAs","torrent":{"xt":"urn:btih:6adbfbc92885fbabf625e6bc7f3553ea978e1a3c","amp;dn":"The+Water+Horse-Legend+of+the+Deep+2007+720p+BRRip+x264+MP4+AAC-","amp;tr":["udp%3A%2F%2Ftracker.openbittorrent.com%3A80","udp%3A%2F%2Fopen.demonii.com%3A1337","udp%3A%2F%2Ftracker.coppersurfer.tk%3A6969","udp%3A%2F%2Fexodus.desync.com%3A6969"],"infoHash":"6adbfbc92885fbabf625e6bc7f3553ea978e1a3c","infoHashBuffer":{"type":"Buffer","data":[106,219,251,201,40,133,251,171,246,37,230,188,127,53,83,234,151,142,26,60]},"announce":[],"urlList":[]}}